<svg width="24" height="24" viewBox="0 0 24 24" fill="none" xmlns="http://www.w3.org/2000/svg">
<g clip-path="url(#clip0_1_2544)">
<path fill-rule="evenodd" clip-rule="evenodd" d="M14.8285 0.00541816L14.8278 0.00562609L0.925135 2.32276C0.725521 2.35592 0.579346 2.52871 0.579346 2.73092V21.2688C0.579346 21.4712 0.725521 21.6438 0.925135 21.677L14.8286 23.9942C14.8709 24.0014 14.9136 24.0016 14.9553 23.9956L23.0654 22.8371C23.2694 22.8079 23.4208 22.6333 23.4208 22.4275V1.57233C23.4208 1.36638 23.2694 1.19177 23.0654 1.16255L14.9551 0.00401463C14.9125 -0.00211933 14.8701 -0.00133959 14.8285 0.00541816ZM15.3104 17.9788V23.109L16.8001 22.8961V16.6546L15.3104 17.9788ZM1.40696 15.9642L14.4827 18.1434V23.0976L1.40696 20.9182V15.9642ZM20.5242 1.63549V13.1584C20.5242 13.2766 20.4735 13.3892 20.3851 13.4677L17.6275 15.9191V22.7778C19.7601 22.4732 22.593 22.0686 22.593 22.0686V1.93127L20.5242 1.63549ZM2.36589 15.2851L14.4827 17.3045V14.9375L5.12097 13.9841L2.36589 15.2851ZM19.6966 1.51734L15.3104 0.890684V16.8715L19.6966 12.9726V1.51734ZM1.40696 4.73657V14.8227L4.63457 13.2985V4.19871L1.40696 4.73657ZM5.46198 4.06064V13.187L14.4827 14.1057V2.5573L5.46198 4.06064ZM16.2207 2.73087V3.88941C16.2207 4.11782 16.4062 4.30335 16.6344 4.30335C16.8628 4.30335 17.0484 4.11782 17.0484 3.88941V2.73087C17.0484 2.50246 16.8628 2.31714 16.6344 2.31714C16.4062 2.31719 16.2207 2.50246 16.2207 2.73087ZM14.4827 1.71835L1.40696 3.89757V3.08144L14.4827 0.902172V1.71835Z" fill="#4888FF" fill-opacity="0.5"/>
</g>
<defs>
<clipPath id="clip0_1_2544">
<rect width="24" height="24" fill="white"/>
</clipPath>
</defs>
</svg>
