<svg width="24" height="24" viewBox="0 0 24 24" fill="none" xmlns="http://www.w3.org/2000/svg">
<g clip-path="url(#clip0_1_2564)">
<path d="M17.5 15H4.5C1 15 0.5 11 0.5 11H17.5V15Z" fill="#4888FF" fill-opacity="0.5"/>
<path d="M23.5 12H20V14H23.5V12Z" fill="#4888FF" fill-opacity="0.5"/>
<path d="M18.5 14H17.5V12H18.5H20V14H18.5Z" fill="white" fill-opacity="0.5"/>
<path d="M14 6.5V19.5C14 23 10 23.5 10 23.5V6.5H14Z" fill="white" fill-opacity="0.5"/>
<path d="M13 0.5H11V4H13V0.5Z" fill="#4888FF" fill-opacity="0.5"/>
<path d="M13 5.5V6.5H11V5.5V4H13V5.5Z" fill="white" fill-opacity="0.5"/>
<path d="M16 8V7C16 6.73478 15.8946 6.48043 15.7071 6.29289C15.5196 6.10536 15.2652 6 15 6H13.5V4.5H14.5V3.5H13.5V0.5C13.5 0.367392 13.4473 0.240215 13.3536 0.146447C13.2598 0.0526784 13.1326 0 13 0L11 0C10.8674 0 10.7402 0.0526784 10.6464 0.146447C10.5527 0.240215 10.5 0.367392 10.5 0.5V3.5H9.5V4.5H10.5V6H9C8.73478 6 8.48043 6.10536 8.29289 6.29289C8.10536 6.48043 8 6.73478 8 7V8H9V7H9.5V23.5C9.5 23.6326 9.55268 23.7598 9.64645 23.8536C9.74021 23.9473 9.86739 24 10 24C10.0207 23.9999 10.0414 23.9986 10.062 23.996C11.597 23.804 14.5 22.6175 14.5 19.5V7H15V8H16ZM11.5 1H12.5V3.5H11.5V1ZM11.5 4.5H12.5V6H11.5V4.5ZM13.5 19.5C13.5 21.8 11.5065 22.619 10.5 22.8865V7H13.5V19.5Z" fill="#4888FF" fill-opacity="0.5"/>
<path d="M12.5 12.5H11.5V20.5H12.5V12.5Z" fill="#4888FF" fill-opacity="0.5"/>
<path d="M12.5 10.5H11.5V11.5H12.5V10.5Z" fill="#4888FF" fill-opacity="0.5"/>
<path d="M12.5 8.5H11.5V9.5H12.5V8.5Z" fill="#4888FF" fill-opacity="0.5"/>
<path d="M0.125029 10.669C0.0781518 10.7222 0.0431202 10.7847 0.0222589 10.8525C0.00139763 10.9202 -0.0048163 10.9917 0.00402942 11.062C0.196029 12.597 1.38253 15.5 4.50003 15.5H8.50003V14.5H4.50003C2.20003 14.5 1.38103 12.5065 1.11353 11.5H8.50003V10.5H0.500029C0.429113 10.5 0.359 10.515 0.294346 10.5442C0.229692 10.5733 0.171976 10.6158 0.125029 10.669Z" fill="#4888FF" fill-opacity="0.5"/>
<path d="M17 9H16V10H17V10.5H15.5V11.5H17V14.5H15.5V15.5H17V16H16V17H17C17.2652 17 17.5196 16.8946 17.7071 16.7071C17.8946 16.5196 18 16.2652 18 16V10C18 9.73478 17.8946 9.48043 17.7071 9.29289C17.5196 9.10536 17.2652 9 17 9Z" fill="#4888FF" fill-opacity="0.5"/>
<path d="M8.5 12.5H3.5V13.5H8.5V12.5Z" fill="#4888FF" fill-opacity="0.5"/>
<path d="M23.5 11.5H20.5V10.5H19.5V11.5H18.5V12.5H19.5V13.5H18.5V14.5H19.5V15.5H20.5V14.5H23.5C23.6326 14.5 23.7598 14.4473 23.8536 14.3536C23.9473 14.2598 24 14.1326 24 14V12C24 11.8674 23.9473 11.7402 23.8536 11.6464C23.7598 11.5527 23.6326 11.5 23.5 11.5ZM23 13.5H20.5V12.5H23V13.5Z" fill="#4888FF" fill-opacity="0.5"/>
</g>
<defs>
<clipPath id="clip0_1_2564">
<rect width="24" height="24" fill="white"/>
</clipPath>
</defs>
</svg>
