<svg width="24" height="24" viewBox="0 0 24 24" fill="none" xmlns="http://www.w3.org/2000/svg">
<path d="M8.74119 9.18374C9.48969 10.9342 11.7644 11.8012 13.4812 10.9545C15.7747 10.0215 16.2982 6.65324 14.4382 5.06849C11.6024 2.42474 7.12869 5.63549 8.74119 9.18374ZM15.9044 12.7545C15.1859 12.2977 14.3107 12.0525 13.4219 12.0435C13.3169 12.0405 10.3139 12.0345 10.3162 12.0585C7.85619 12.171 5.85894 14.25 5.85969 16.761C5.90169 17.1772 5.79219 18.441 5.92494 18.8295C6.05689 19.3869 6.37297 19.8836 6.82208 20.2392C7.27119 20.5948 7.82709 20.7886 8.39994 20.7892H15.5999C17.0129 20.7952 18.1544 19.6155 18.1402 18.249V16.761C18.1396 15.9581 17.9339 15.1687 17.5428 14.4676C17.1517 13.7665 16.588 13.1768 15.9052 12.7545H15.9044Z" fill="#4888FF" fill-opacity="0.5"/>
<path d="M3.1815 18.8295H4.82175C4.728 18.45 4.7865 17.0633 4.77075 16.6523C4.79683 15.4215 5.21186 14.2305 5.95638 13.2501C6.70089 12.2697 7.73666 11.5501 8.91525 11.1945C8.7 11.0235 8.511 10.7955 8.33475 10.5923C8.1736 10.5714 8.01124 10.5614 7.84875 10.5623H5.199C4.01928 10.5638 2.88835 11.0333 2.05431 11.8676C1.22026 12.702 0.751191 13.833 0.75 15.0128V16.3995C0.750199 17.0442 1.00646 17.6625 1.46243 18.1183C1.91841 18.5742 2.53676 18.8295 3.1815 18.8295ZM6.52725 10.0185C6.98475 10.0185 7.41225 9.9315 7.812 9.76425C7.46417 9.07235 7.29919 8.30294 7.33275 7.52925C7.35479 6.89418 7.50656 6.27033 7.77871 5.69611C8.05086 5.12188 8.43764 4.60942 8.91525 4.19025C6.876 2.082 3.0525 3.64275 3.11625 6.615C3.11625 8.487 4.64775 10.0185 6.52725 10.0185ZM18.801 10.563H16.1512C15.63 10.452 15.4358 10.9095 15.0848 11.1945C16.045 11.4806 16.9134 12.0136 17.6033 12.7403C18.62 13.792 19.2009 15.1897 19.2292 16.6523C19.2143 17.0685 19.2705 18.4373 19.1782 18.8295H20.8185C21.4632 18.8295 22.0816 18.5734 22.5376 18.1176C22.9935 17.6618 23.2498 17.0435 23.25 16.3988V15.012C23.2484 13.8325 22.7792 12.7018 21.9452 11.8678C21.1112 11.0338 19.9805 10.5646 18.801 10.563ZM16.377 6.0705C16.602 6.66606 16.7013 7.30172 16.6688 7.93751C16.6362 8.57331 16.4726 9.19551 16.188 9.765C16.595 9.93454 17.0319 10.0207 17.4728 10.0185C21.9803 9.8715 21.9795 3.35175 17.4728 3.21075C16.5792 3.21194 15.7218 3.56364 15.0848 4.19025C15.6665 4.69862 16.1109 5.34524 16.377 6.0705Z" fill="#4888FF" fill-opacity="0.5"/>
</svg>
