<svg width="24" height="24" viewBox="0 0 24 24" fill="none" xmlns="http://www.w3.org/2000/svg">
<path d="M0.703125 10.1939H0V16.3633C0.924844 16.4212 1.78777 16.7109 2.53125 17.1751V10.1939H0.703125Z" fill="#343A3F"/>
<path d="M19.5619 2.54672H4.43813C1.99092 2.54672 0 4.53764 0 6.98485V8.78766H0.703125H3.9375H9.15244V7.48299H14.8476V8.78766H20.0625H23.2969H24V6.98485C24 4.53764 22.0091 2.54672 19.5619 2.54672Z" fill="#343A3F"/>
<path d="M14.8476 10.1939V10.9733C14.8476 11.2286 14.8133 11.4759 14.75 11.7115H20.0625V10.1939H14.8476Z" fill="#343A3F"/>
<path d="M23.2969 10.1939H21.4688V17.1751C22.2122 16.7109 23.0752 16.4212 24 16.3633V10.1939H23.2969Z" fill="#343A3F"/>
<path d="M13.8704 13.1178C13.3696 13.5551 12.7155 13.8209 12 13.8209C11.2845 13.8209 10.6304 13.5551 10.1296 13.1178H3.9375V18.4364C4.59966 19.2781 5.01895 20.3193 5.08992 21.4533H18.9101C18.981 20.3192 19.4003 19.2781 20.0625 18.4364V13.1178H13.8704Z" fill="#343A3F"/>
<path d="M20.3208 21.4533H24V17.7741C22.047 17.9395 20.4863 19.5002 20.3208 21.4533Z" fill="#343A3F"/>
<path d="M0 17.7741V21.4533H3.67922C3.51375 19.5002 1.95305 17.9395 0 17.7741Z" fill="#343A3F"/>
<path d="M9.15244 10.9733V10.1939H3.9375V11.7115H9.25003C9.18675 11.4759 9.15244 11.2286 9.15244 10.9733Z" fill="#343A3F"/>
<path d="M10.5587 8.88928V10.9734C10.5587 11.7681 11.2053 12.4147 12 12.4147C12.7947 12.4147 13.4413 11.7682 13.4413 10.9734V8.88928H10.5587Z" fill="#343A3F"/>
</svg>
