<svg width="24" height="24" viewBox="0 0 24 24" fill="none" xmlns="http://www.w3.org/2000/svg">
<path d="M17.0396 2.8001C16.0078 2.81615 14.9985 3.10418 14.1136 3.6351C13.2287 4.16602 12.4996 4.92103 11.9999 5.82389C11.5002 4.92103 10.7711 4.16602 9.88623 3.6351C9.00136 3.10418 7.99207 2.81615 6.96027 2.8001C5.31545 2.87157 3.76577 3.5911 2.64979 4.80152C1.53381 6.01193 0.942234 7.61483 1.00431 9.26002C1.00431 13.4264 5.38973 17.9768 9.06776 21.062C9.88896 21.7521 10.9273 22.1304 11.9999 22.1304C13.0726 22.1304 14.1109 21.7521 14.9321 21.062C18.6101 17.9768 22.9955 13.4264 22.9955 9.26002C23.0576 7.61483 22.466 6.01193 21.35 4.80152C20.2341 3.5911 18.6844 2.87157 17.0396 2.8001Z" fill="#343A3F"/>
</svg>
