<svg width="24" height="24" viewBox="0 0 24 24" fill="none" xmlns="http://www.w3.org/2000/svg">
<path d="M17.0396 2.80009C16.0078 2.81614 14.9985 3.10417 14.1136 3.63509C13.2287 4.16601 12.4996 4.92103 11.9999 5.82389C11.5002 4.92103 10.7711 4.16601 9.88623 3.63509C9.00136 3.10417 7.99207 2.81614 6.96027 2.80009C5.31545 2.87156 3.76577 3.59109 2.64979 4.80151C1.53381 6.01192 0.942234 7.61482 1.00431 9.26001C1.00431 13.4264 5.38973 17.9768 9.06776 21.062C9.88896 21.7521 10.9273 22.1304 11.9999 22.1304C13.0726 22.1304 14.1109 21.7521 14.9321 21.062C18.6101 17.9768 22.9955 13.4264 22.9955 9.26001C23.0576 7.61482 22.466 6.01192 21.35 4.80151C20.2341 3.59109 18.6844 2.87156 17.0396 2.80009Z" fill="#4888FF"/>
</svg>
