<svg width="24" height="24" viewBox="0 0 24 24" fill="none" xmlns="http://www.w3.org/2000/svg">
<g clip-path="url(#clip0_2_1580)">
<path d="M9.3623 11.1722H7.70713C7.47881 11.1722 7.29333 11.3577 7.29333 11.586V11.9998H9.77609V11.586C9.77609 11.3581 9.59082 11.1722 9.3623 11.1722Z" fill="#343A3F"/>
<path d="M13.914 7.44815H13.0864V10.3447C13.0864 11.6493 12.5315 12.8241 11.6488 13.6549H13.914V7.44815Z" fill="#343A3F"/>
<path d="M6.29403 18.3759L7.78858 17.379L5.9849 16.1767L5.69153 16.266L6.29403 18.3759Z" fill="#343A3F"/>
<path d="M12.6238 14.4825H11.4313V15.4119L12.0681 15.5939L12.6238 14.4825Z" fill="#343A3F"/>
<path d="M12.2588 7.44815H4.81055V10.3447C4.81055 12.3982 6.48107 14.0687 8.53468 14.0687C10.5883 14.0687 12.2588 12.3982 12.2588 10.3447V7.44815ZM6.05193 8.68951C6.05193 8.4612 6.23741 8.27572 6.46572 8.27572C6.69423 8.27572 6.87951 8.4612 6.87951 8.68951C6.87951 8.91782 6.69423 9.10329 6.46572 9.10329C6.23741 9.10329 6.05193 8.91842 6.05193 8.68951ZM10.6037 12.8274H6.46572V11.586C6.46572 10.9017 7.02276 10.3447 7.7071 10.3447H9.36227C10.0466 10.3447 10.6037 10.9017 10.6037 11.586V12.8274ZM10.6037 9.10329C10.3753 9.10329 10.1899 8.91782 10.1899 8.68951C10.1899 8.4612 10.3753 8.27572 10.6037 8.27572C10.8322 8.27572 11.0174 8.4612 11.0174 8.68951C11.0174 8.91842 10.8322 9.10329 10.6037 9.10329Z" fill="#343A3F"/>
<path d="M15.5273 0.413788H15.1553C14.156 0.413788 13.3201 1.12599 13.1282 2.06893H13.5001C14.4995 2.06893 15.3353 1.35713 15.5273 0.413788Z" fill="#343A3F"/>
<path d="M14.7416 4.55164H14.3575L2.32776 5.75401V6.62057H14.7416V4.55164Z" fill="#343A3F"/>
<path d="M11.0174 3.31029C11.0174 2.62596 11.5745 2.06893 12.2588 2.06893C12.2699 2.06893 12.2804 2.07176 12.2915 2.07216C12.2923 2.06529 12.2936 2.05863 12.2948 2.05155C11.552 0.785749 10.1997 0 8.725 0C7.02053 0 5.50942 1.02295 4.8764 2.60556C4.56767 3.37696 4.16621 4.10674 3.68958 4.78622L11.2524 4.03158C11.1059 3.82792 11.0174 3.58002 11.0174 3.31029Z" fill="#343A3F"/>
<path d="M12.6726 3.31029C12.6726 3.5388 12.4873 3.72407 12.2588 3.72407C12.0302 3.72407 11.845 3.5388 11.845 3.31029C11.845 3.08177 12.0302 2.8965 12.2588 2.8965C12.4873 2.8965 12.6726 3.08177 12.6726 3.31029Z" fill="#343A3F"/>
<path d="M9.28088 17.379L10.7754 18.3759L11.3804 16.2581L11.0878 16.1744L9.28088 17.379Z" fill="#343A3F"/>
<path d="M13.914 14.4825H13.5491L12.8779 15.8253L13.5204 16.0085L13.6215 15.6378L16.0711 16.2502L15.9238 16.8381C16.2796 17.0723 16.5764 17.375 16.794 17.7277L17.98 15.3555L14.7097 13.8689C14.6145 14.2215 14.2955 14.4825 13.914 14.4825Z" fill="#343A3F"/>
<path d="M15.6942 17.7005C15.301 19.1218 14.7013 20.458 13.9139 21.6783V24H16.3967V19.2518C16.3967 18.6452 16.1352 18.087 15.6942 17.7005Z" fill="#343A3F"/>
<path d="M13.0864 23.9996V22.8298C12.7641 23.2353 12.4251 23.6288 12.0586 24H13.0864V23.9996Z" fill="#343A3F"/>
<path d="M15.0672 16.8527L14.2065 16.6375L14.158 16.8155C13.4264 19.4976 11.9472 21.8983 9.88067 23.7583L9.61255 23.9996H10.8531C12.8952 22.1743 14.3277 19.8108 14.9931 17.1497L15.0672 16.8527Z" fill="#343A3F"/>
<path d="M2.14028 17.3439C1.26259 17.6104 0.672607 18.406 0.672607 19.3239V24H3.15537V20.8491C3.15537 19.6068 2.9513 18.389 2.54882 17.2206L2.14028 17.3439Z" fill="#343A3F"/>
<path d="M13.2949 16.805L12.176 16.4852L11.2595 19.6928L8.94849 18.1524V23.4844L9.32712 23.1435C11.2219 21.4383 12.5866 19.2489 13.2949 16.805Z" fill="#343A3F"/>
<path d="M4.89901 16.5064L3.34021 16.9798C3.76613 18.226 3.98292 19.5245 3.98292 20.8485V23.9996H8.12085V18.1524L5.80984 19.6928L4.89901 16.5064Z" fill="#343A3F"/>
<path d="M3.98298 10.3447V7.44815H3.1554V13.6549H5.42055C4.5378 12.8245 3.98298 11.6493 3.98298 10.3447Z" fill="#343A3F"/>
<path d="M10.6036 14.394C9.98213 14.713 9.27981 14.8963 8.53466 14.8963C7.78951 14.8963 7.0872 14.7126 6.4657 14.394V15.5024L8.53466 16.8816L10.6036 15.5024V14.394Z" fill="#343A3F"/>
<path d="M21.3635 8.62121L20.4817 6.83817L18.9747 9.44757L19.4295 11.1437L18.1352 13.3852L15.5952 12.2134L17.0833 9.63588L18.7789 9.18148L20.2856 6.57168L18.3006 6.69998L17.4193 4.91653L15.9122 7.52634L16.3666 9.22169L14.8404 11.8648L14.7416 11.819V12.9747L18.6876 14.7684L19.1464 13.8519L18.8898 13.7335L20.1465 11.5575L21.8419 11.1027L23.3488 8.49332L21.3635 8.62121Z" fill="#343A3F"/>
</g>
<defs>
<clipPath id="clip0_2_1580">
<rect width="24" height="24" fill="white"/>
</clipPath>
</defs>
</svg>
