<svg width="24" height="24" viewBox="0 0 24 24" fill="none" xmlns="http://www.w3.org/2000/svg">
<path d="M23.53 1.96635C23.3401 1.79255 23.1073 1.67243 22.8556 1.61835C22.6039 1.56427 22.3423 1.57817 22.0978 1.65862L0.995214 8.61492C0.420104 8.80448 0.0301044 9.31785 0.00165128 9.92268C-0.026755 10.5276 0.313323 11.0753 0.868042 11.3181L6.08687 13.6014L7.66145 20.9043C7.72684 21.2077 7.88082 21.4779 8.20703 21.561C8.53698 21.6451 8.77009 21.4648 9.01628 21.2804L12.8891 18.3805L17.4167 22.0855C17.6804 22.3014 18.0027 22.414 18.3314 22.414C18.4906 22.4138 18.6487 22.3876 18.7995 22.3363C19.276 22.1747 19.6292 21.7858 19.7444 21.296L23.9616 3.36623C24.0204 3.11559 24.0114 2.85382 23.9355 2.6078C23.8597 2.36178 23.7197 2.14039 23.53 1.96635ZM9.35364 14.9099C9.35106 14.9159 9.34853 14.9228 9.34614 14.9311L8.47314 17.9812L7.49889 13.4626L14.1981 9.74053L9.51432 14.6379C9.44087 14.7152 9.38593 14.8082 9.35364 14.9099ZM9.63071 19.0595L10.0272 17.6741L10.4065 16.349L11.7654 17.461L9.63071 19.0595ZM22.5894 3.04345L18.3723 20.9732C18.3702 20.9821 18.3674 20.9944 18.3468 21.0014C18.3264 21.0083 18.3164 21.0004 18.3094 20.9946L13.3551 16.9405L13.3547 16.9402L11.0593 15.0618L18.4338 7.35093C18.5504 7.22906 18.6194 7.06944 18.6283 6.90105C18.6372 6.73265 18.5854 6.56665 18.4824 6.43317C18.3793 6.29967 18.2318 6.20755 18.0666 6.17353C17.9015 6.13952 17.7296 6.16586 17.5822 6.24778L6.66259 12.3148L1.43307 10.0267C1.41714 10.0197 1.40837 10.0158 1.40964 9.98887C1.4109 9.96201 1.42 9.95896 1.4365 9.95353L22.5391 2.99728C22.5493 2.99395 22.5608 2.9901 22.5778 3.00557C22.5947 3.02114 22.5919 3.03295 22.5894 3.04345Z" fill="#343A3F"/>
</svg>
