<svg width="24" height="24" viewBox="0 0 24 24" fill="none" xmlns="http://www.w3.org/2000/svg">
<path d="M22.2539 2.13384C22.4142 2.08113 22.586 2.07204 22.751 2.10748C22.8745 2.13407 22.9908 2.18516 23.0938 2.25689L23.1924 2.33501C23.3165 2.44899 23.4084 2.59389 23.458 2.75494C23.4953 2.87591 23.5074 3.00283 23.4951 3.12798L23.4746 3.25201L19.2578 21.1817C19.1915 21.4634 19.0069 21.6925 18.752 21.8165L18.6387 21.8624V21.8633C18.5397 21.897 18.4356 21.914 18.3311 21.9141L18.1719 21.9004C18.067 21.8823 17.9651 21.8458 17.8701 21.792L17.7334 21.6983L13.2061 17.9932L12.9023 17.7452L12.5898 17.9805L8.7168 20.8799C8.58051 20.982 8.5082 21.0345 8.44043 21.0645C8.41767 21.0745 8.39982 21.0803 8.38281 21.0821L8.33008 21.0762C8.28466 21.0646 8.25904 21.0451 8.23535 21.0137C8.22045 20.9939 8.20505 20.967 8.19043 20.9317L8.15039 20.7989L6.5752 13.4961L6.52148 13.2461L1.06836 10.8604C0.748972 10.7206 0.539593 10.4299 0.504883 10.0928L0.500977 9.94634C0.517346 9.59839 0.713635 9.29948 1.01562 9.14654L1.15137 9.0899L22.2539 2.13384ZM22.4443 2.50591C22.4259 2.5098 22.4101 2.51377 22.4004 2.51665C22.3956 2.51807 22.3913 2.51973 22.3887 2.52056L22.3838 2.52154L22.3828 2.52251L1.28027 9.47857C1.27939 9.47886 1.27071 9.4812 1.26172 9.48443C1.25226 9.48782 1.2361 9.49412 1.2168 9.50298C1.17649 9.52154 1.11284 9.55707 1.05273 9.62115C0.957463 9.72288 0.926592 9.8359 0.916016 9.90826L0.910156 9.9649V10.0225C0.91384 10.0954 0.934247 10.211 1.01953 10.3213C1.07336 10.3909 1.13322 10.4318 1.17188 10.4542C1.1906 10.465 1.20657 10.4733 1.21582 10.4776C1.22452 10.4817 1.2325 10.485 1.2334 10.4854V10.4844L6.46191 12.7725L6.68945 12.8721L6.90527 12.752L17.8252 6.68462C17.868 6.66091 17.9179 6.65327 17.9658 6.66314C17.9899 6.66811 18.0127 6.6776 18.0332 6.69048L18.0869 6.73833C18.1169 6.77712 18.1315 6.82613 18.1289 6.87505C18.1276 6.89948 18.1219 6.92327 18.1123 6.94537L18.0723 7.00494L10.6982 14.7159L10.3242 15.1065L10.7422 15.4483L13.0381 17.3272L17.9932 21.3819V21.3809C18.0055 21.3914 18.0734 21.449 18.1748 21.4805C18.2966 21.5183 18.4137 21.5066 18.5078 21.4747L18.5068 21.4737C18.6006 21.4419 18.7021 21.3813 18.7764 21.2754C18.8101 21.2274 18.8296 21.1812 18.8418 21.1465C18.8478 21.1296 18.8519 21.1143 18.8545 21.1045L18.8584 21.0889L18.8594 21.0879L23.0762 3.15826C23.0766 3.15662 23.0784 3.149 23.0801 3.14068C23.0822 3.1306 23.0846 3.11531 23.0869 3.09673C23.0917 3.05771 23.0944 3.00245 23.083 2.93853C23.0643 2.83353 23.0176 2.7512 22.9668 2.69048L22.916 2.63677L22.915 2.6358L22.8564 2.5899C22.7914 2.54479 22.7052 2.50551 22.5996 2.49615C22.5358 2.49054 22.4822 2.49795 22.4443 2.50591ZM9.92578 16.211L9.54688 17.5362L9.15039 18.9219L8.74121 20.3497L9.93066 19.46L12.0654 17.8614L12.5762 17.4786L12.082 17.0743L10.7236 15.962L10.1348 15.4805L9.92578 16.211ZM13.9551 9.30376L7.25586 13.0254L6.93164 13.2051L7.00977 13.5684L7.98438 18.087L8.9541 18.1192L9.82324 15.0831L9.83008 15.0616C9.83945 15.0321 9.85563 15.0049 9.87695 14.9825L9.87598 14.9815L14.5596 10.086L13.9551 9.30376Z" fill="#4888FF" stroke="#4888FF"/>
</svg>
