<svg width="24" height="24" viewBox="0 0 24 24" fill="none" xmlns="http://www.w3.org/2000/svg">
<path fill-rule="evenodd" clip-rule="evenodd" d="M20.1298 3.26981C18.0248 1.16237 15.2254 0.00123047 12.243 0C6.09751 0 1.09598 5.0014 1.09352 11.1485C1.09267 13.1136 1.60599 15.0317 2.58171 16.7226L1 22.5L6.9105 20.9495C8.53908 21.8379 10.3726 22.3061 12.2384 22.3066H12.2431C18.3879 22.3066 23.39 17.3048 23.3923 11.1574C23.3936 8.17822 22.2349 5.37715 20.1298 3.26981ZM12.243 20.4237H12.2391C10.5763 20.423 8.94556 19.9761 7.52254 19.132L7.18433 18.931L3.67694 19.8511L4.61308 16.4315L4.39265 16.0809C3.46501 14.6054 2.97515 12.9001 2.97599 11.1492C2.97792 6.03984 7.13515 1.88304 12.2467 1.88304C14.7219 1.88385 17.0487 2.84899 18.7982 4.60061C20.5478 6.35224 21.5107 8.68053 21.5099 11.1567C21.5078 16.2664 17.3508 20.4237 12.243 20.4237ZM17.3261 13.4832C17.0476 13.3437 15.6778 12.67 15.4224 12.5769C15.1672 12.4839 14.9813 12.4376 14.7958 12.7164C14.61 12.9951 14.0762 13.6227 13.9136 13.8085C13.751 13.9945 13.5886 14.0178 13.31 13.8783C13.0314 13.7389 12.1338 13.4446 11.0696 12.4955C10.2415 11.7568 9.68247 10.8446 9.51987 10.5658C9.35755 10.2867 9.51846 10.1505 9.64207 9.99724C9.94364 9.62275 10.2456 9.23013 10.3385 9.04433C10.4314 8.85835 10.3849 8.69565 10.3151 8.55625C10.2456 8.41686 9.68851 7.04563 9.45641 6.48766C9.23011 5.94467 9.00061 6.01797 8.8295 6.0095C8.66719 6.00138 8.48139 5.99973 8.29559 5.99973C8.10989 5.99973 7.80804 6.06934 7.55263 6.34841C7.29733 6.62734 6.57775 7.30121 6.57775 8.67244C6.57775 10.0437 7.57597 11.3683 7.71523 11.5543C7.85445 11.7402 9.67972 14.5541 12.4742 15.7607C13.1389 16.048 13.6577 16.2192 14.0624 16.3476C14.7298 16.5596 15.337 16.5297 15.8171 16.458C16.3524 16.378 17.4652 15.784 17.6975 15.1333C17.9296 14.4826 17.9296 13.9249 17.8598 13.8085C17.7904 13.6924 17.6046 13.6227 17.3261 13.4832Z" fill="#343A3F"/>
</svg>
