<svg width="24" height="24" viewBox="0 0 24 24" fill="none" xmlns="http://www.w3.org/2000/svg">
<path d="M12.2432 0.5C14.9147 0.501201 17.4305 1.4751 19.3916 3.25586L19.7764 3.62305C21.7877 5.63655 22.8938 8.31063 22.8926 11.1572L22.8779 11.7041C22.5902 17.3225 17.9284 21.8066 12.2432 21.8066H12.2383L11.9043 21.8018C10.2379 21.749 8.60796 21.3058 7.15039 20.5107L6.97559 20.415L6.7832 20.4658L1.71094 21.7959L3.06445 16.8545L3.11914 16.6533L3.01465 16.4727C2.08298 14.8582 1.59294 13.026 1.59375 11.1484L1.60742 10.6016C1.88608 5.16469 6.26109 0.790102 11.6963 0.513672L12.2432 0.5ZM12.2471 1.38281C6.85964 1.38281 2.47792 5.76329 2.47559 11.1484C2.47475 12.8779 2.92844 14.5667 3.79102 16.0527L3.96973 16.3467L4.07227 16.5107L3.19434 19.7188L2.96582 20.5547L3.80371 20.335L7.1084 19.4678L7.26758 19.5615C8.6744 20.3961 10.273 20.8624 11.9111 20.918L12.2393 20.9238H12.2432C17.4588 20.9237 21.7328 16.8122 21.9971 11.6592L22.0098 11.1572C22.0106 8.54855 20.9956 6.09251 19.1523 4.24707C17.4244 2.51707 15.1594 1.51491 12.7344 1.39551L12.2471 1.38281ZM8.2959 6.5L8.80469 6.50879C8.84294 6.51068 8.88127 6.50987 8.89941 6.50977C8.90147 6.50975 8.90342 6.50977 8.90527 6.50977C8.91306 6.52046 8.92378 6.53499 8.93555 6.55566L8.99512 6.67969C9.11071 6.95758 9.30662 7.43727 9.48438 7.86914C9.56962 8.07625 9.65386 8.28104 9.72266 8.44531L9.86719 8.7793L9.86816 8.78027C9.87829 8.80054 9.88434 8.81525 9.8877 8.8252V8.82617C9.86082 8.87745 9.7889 8.98805 9.66699 9.15234L9.25293 9.68359C9.24984 9.68735 9.17789 9.77265 9.15234 9.80566C9.10994 9.86049 9.05212 9.94247 9.00977 10.0479C8.92063 10.2698 8.93548 10.5008 9.03809 10.7227L9.08789 10.8174C9.23731 11.0735 9.70811 11.8461 10.418 12.5654L10.7363 12.8691H10.7373C11.5841 13.6242 12.3529 14.0016 12.7812 14.1914L13.0859 14.3252C13.2582 14.4114 13.4756 14.4911 13.7158 14.4619C13.9113 14.4381 14.0641 14.3506 14.1826 14.2461L14.29 14.1377C14.4422 13.9638 14.9663 13.3464 15.1885 13.0244L15.251 13.0469C15.3486 13.0825 15.7253 13.2586 16.1484 13.4629L17.1025 13.9307C17.1757 13.9673 17.2443 13.9999 17.2988 14.0264C17.3398 14.0462 17.3722 14.0631 17.3994 14.0771C17.3996 14.1177 17.3987 14.168 17.3936 14.2275C17.3769 14.4207 17.3279 14.6806 17.2266 14.9648C17.1683 15.128 16.9526 15.3638 16.6016 15.5889C16.3473 15.7519 16.0895 15.8667 15.9033 15.9248L15.7432 15.9639C15.3596 16.0212 14.9112 16.0453 14.4248 15.9297L14.2139 15.8711C13.9159 15.7766 13.5594 15.6598 13.1289 15.4902L12.6729 15.3018L12.4268 15.1904C10.5654 14.3026 9.18146 12.6833 8.52539 11.8193L8.11523 11.2549C8.05077 11.1688 7.78719 10.8178 7.54004 10.3311C7.28945 9.83741 7.07823 9.24569 7.07812 8.67285C7.07812 7.80078 7.40975 7.27426 7.68262 6.94922L7.92188 6.68555C8.06638 6.52792 8.22483 6.5 8.2959 6.5Z" fill="#4888FF" stroke="#4888FF"/>
</svg>
