<svg width="24" height="24" viewBox="0 0 24 24" fill="none" xmlns="http://www.w3.org/2000/svg">
<path d="M21.7665 20.5891L16.7964 15.6191C18.1508 13.9626 18.8167 11.8489 18.6564 9.71521C18.4961 7.58152 17.5218 5.59108 15.9351 4.15558C14.3484 2.72009 12.2706 1.94937 10.1316 2.00285C7.99254 2.05634 5.95589 2.92992 4.44289 4.44292C2.92989 5.95592 2.0563 7.99257 2.00282 10.1316C1.94934 12.2706 2.72005 14.3484 4.15555 15.9351C5.59105 17.5218 7.58149 18.4961 9.71518 18.6564C11.8489 18.8167 13.9626 18.1508 15.619 16.7964L20.5891 21.7665C20.7462 21.9182 20.9565 22.0021 21.1748 22.0002C21.3931 21.9983 21.602 21.9107 21.7563 21.7564C21.9107 21.602 21.9983 21.3931 22.0002 21.1748C22.0021 20.9565 21.9182 20.7462 21.7665 20.5891ZM10.3534 17.0146C9.0359 17.0146 7.74802 16.6239 6.6526 15.892C5.55717 15.16 4.70339 14.1197 4.19922 12.9025C3.69505 11.6853 3.56313 10.346 3.82016 9.05385C4.07718 7.76171 4.7116 6.5748 5.64318 5.64321C6.57477 4.71163 7.76168 4.07721 9.05382 3.82019C10.346 3.56316 11.6853 3.69508 12.9025 4.19925C14.1197 4.70342 15.16 5.5572 15.8919 6.65263C16.6239 7.74805 17.0146 9.03593 17.0146 10.3534C17.0126 12.1194 16.3101 13.8126 15.0613 15.0614C13.8126 16.3102 12.1194 17.0126 10.3534 17.0146Z" fill="white"/>
</svg>
